<?xml version="1.0" encoding="UTF-8"?>
<svg id="Layer_1" xmlns="http://www.w3.org/2000/svg" viewBox="0 0 850.74 287.72">
  <defs>
    <style>
      .cls-1 {
        fill: #636566;
      }

      .cls-2 {
        fill: #2aace2;
      }
    </style>
  </defs>
  <polygon class="cls-2" points="53.19 140.76 35.8 181.45 18.34 140.76 .71 140.76 30.15 209.71 41.39 209.71 70.78 140.76 53.19 140.76"/>
  <path class="cls-2" d="M467.02,106.39c-29.3,0-53.06,23.72-53.06,52.97s23.76,52.98,53.06,52.98,53.05-23.73,53.05-52.98-23.76-52.97-53.05-52.97M498.14,161.97l-3.09.57c-.19,1.76-.54,3.44-1.05,5.1l2.61,1.65-1.88,4.5-3.04-.66c-.84,1.52-1.82,2.95-2.92,4.28l1.77,2.54-3.46,3.43-2.58-1.79c-1.33,1.09-2.8,2.05-4.34,2.87l.65,3.02-4.51,1.84-1.68-2.61c-1.65.47-3.35.79-5.11.97l-.56,3.04h-4.86l-.57-3.07c-1.74-.2-3.45-.55-5.1-1.04l-1.64,2.59-4.5-1.86.64-3.06c-1.52-.84-2.97-1.82-4.28-2.92l-2.55,1.78-3.45-3.44,1.78-2.58c-1.07-1.36-2.02-2.79-2.85-4.32l-3.03.65-1.87-4.48,2.63-1.7c-.45-1.64-.8-3.35-.96-5.1l-3.05-.54v-4.88l3.1-.56c.18-1.74.53-3.45,1.04-5.07l-2.62-1.67,1.89-4.5,3.06.66c.84-1.51,1.83-2.96,2.93-4.3l-1.78-2.53,3.45-3.44,2.6,1.78c1.33-1.07,2.79-2.03,4.34-2.85l-.67-3.01,4.51-1.86,1.7,2.62c1.66-.47,3.37-.8,5.1-.98l.56-3.04h4.87l.57,3.09c1.74.21,3.45.54,5.1,1.04l1.64-2.57,4.5,1.85-.64,3.06c1.52.83,2.96,1.81,4.3,2.92l2.52-1.76,3.46,3.43-1.78,2.58c1.08,1.35,2.03,2.8,2.86,4.33l3.01-.65,1.87,4.49-2.62,1.7c.47,1.63.81,3.34.96,5.1l3.05.53v4.87Z"/>
  <path class="cls-2" d="M105.08,154.95c-5.38,0-9.84,1.91-13.4,5.73-3.55,3.74-5.33,8.59-5.33,14.49s1.8,10.86,5.4,14.71c3.64,3.85,8.1,5.77,13.4,5.77s9.98-1.9,13.58-5.65c3.6-3.79,5.4-8.76,5.4-14.89s-1.81-10.86-5.4-14.57c-3.6-3.72-8.14-5.59-13.64-5.59M123.29,140.77h17.26v68.94h-17.26v-7.28c-3.39,3.21-6.79,5.53-10.23,6.98-3.38,1.39-7.06,2.09-11.03,2.09-8.94,0-16.66-3.45-23.17-10.34-6.52-6.92-9.78-15.51-9.78-25.78s3.15-19.37,9.46-26.17c6.3-6.79,13.95-10.19,22.96-10.19,4.16,0,8.05.77,11.7,2.34,3.63,1.57,6.99,3.9,10.09,7.02v-7.6Z"/>
  <path class="cls-2" d="M153.28,140.76h17.25v7.04c3.95-3.29,7.49-5.57,10.67-6.85,3.22-1.3,6.5-1.96,9.83-1.96,6.85,0,12.67,2.38,17.46,7.15,4.01,4.08,6.03,10.06,6.03,18v45.55h-17.15v-30.22c0-8.24-.39-13.7-1.14-16.41-.72-2.72-2.01-4.75-3.88-6.15-1.82-1.43-4.07-2.15-6.79-2.15-3.51,0-6.52,1.18-9.07,3.55-2.5,2.32-4.24,5.55-5.21,9.7-.5,2.14-.77,6.82-.77,13.99v27.7h-17.25v-68.94Z"/>
  <path class="cls-2" d="M530.72,109.25h25.52v48.36c0,9.43.67,15.98,1.96,19.69,1.31,3.63,3.36,6.46,6.19,8.5,2.9,2.03,6.45,3.06,10.65,3.06s7.73-1.01,10.62-2.96c2.96-2.04,5.16-5,6.58-8.88,1.05-2.9,1.57-9.07,1.57-18.55v-49.21h25.36v42.57c0,17.54-1.4,29.54-4.18,36.01-3.38,7.87-8.39,13.93-14.98,18.19-6.61,4.17-14.97,6.27-25.15,6.27-11.04,0-20-2.47-26.84-7.39-6.78-4.92-11.54-11.79-14.33-20.6-1.97-6.08-2.96-17.17-2.96-33.23v-41.83Z"/>
  <path class="cls-2" d="M638.58,109.25h21.65v12.63c2.33-4.97,5.47-8.75,9.35-11.35,3.89-2.58,8.12-3.88,12.77-3.88,3.25,0,6.68.88,10.25,2.6l-7.86,21.69c-2.95-1.49-5.38-2.22-7.3-2.22-3.89,0-7.18,2.39-9.89,7.21-2.66,4.79-3.97,14.21-3.97,28.25l.09,4.9v40.62h-25.08v-100.46Z"/>
  <polygon class="cls-2" points="750.69 70.45 750.69 209.71 775.94 209.71 775.94 163.44 818.68 209.71 850.04 209.71 801.48 157.44 844.76 109.25 813.14 109.25 775.94 150.69 775.94 70.45 750.69 70.45"/>
  <path class="cls-2" d="M701.22,109.25l-.61,2.88,1.7.69v96.89h25.35v-96.82l1.5-.61-.67-3.02s.01,0,.01,0h-27.28Z"/>
  <polygon class="cls-2" points="266.7 70.54 298.71 70.54 327.08 155.53 356.19 70.54 387.81 70.54 411.74 209.82 382.08 209.82 367.47 124.04 338.53 209.82 315.67 209.82 287.07 124.04 272.19 209.82 242.21 209.82 266.7 70.54"/>
  <g>
    <path class="cls-1" d="M466.76,159.21c-75.54-245.8,133.65-144.93,213.43-101.45.29.18.46.47.46.84,0,.5-.4.93-.9.93-.16,0-.3-.06-.45-.13l.08.03c-76.63-37.51-262.37-122.58-210.83,99.3h.02v.17c0,.55-.41.98-.93.98-.43,0-.77-.28-.89-.67h0Z"/>
    <path class="cls-1" d="M743.44,81.37c-.18-1.77-.51-3.47-.96-5.12l2.62-1.68-1.87-4.51-3,.67c-.83-1.54-1.79-2.99-2.86-4.35l1.79-2.56-3.46-3.44-2.52,1.76c-1.33-1.1-2.78-2.08-4.3-2.92l.64-3.07-4.51-1.86-1.65,2.59c-1.66-.5-3.34-.83-5.09-1.04l-.57-3.08h-4.88l-.55,3.03c-1.73.18-3.45.5-5.09.98l-1.7-2.64-4.51,1.86.65,3.01c-1.54.83-2.97,1.79-4.32,2.86l-2.58-1.78-3.46,3.45,1.77,2.53c-1.1,1.34-2.08,2.78-2.92,4.29l-3.07-.67-1.86,4.51,2.6,1.66c-.5,1.64-.85,3.33-1.04,5.08l-3.1.57v4.87l3.04.54c.17,1.77.49,3.46.96,5.1l-2.63,1.7,1.87,4.5,3.02-.65c.81,1.53,1.78,2.98,2.86,4.32l-1.79,2.58,3.45,3.46,2.55-1.78c1.33,1.09,2.76,2.07,4.29,2.9l-.65,3.08,4.49,1.86,1.68-2.58c1.62.48,3.35.82,5.08,1.03l.58,3.07h4.88l.54-3.04c1.76-.17,3.44-.5,5.1-.97l1.69,2.63,4.52-1.86-.67-3.02c1.54-.81,2.99-1.77,4.35-2.86l2.59,1.79,3.43-3.44-1.77-2.53c1.11-1.34,2.09-2.78,2.93-4.3l3.07.68,1.86-4.52-2.6-1.65c.5-1.64.87-3.34,1.03-5.1l3.1-.55v-4.88l-3.04-.53ZM731.18,84.31c0,4.49-1.58,8.33-4.72,11.54-3.15,3.13-6.92,4.7-11.29,4.7s-8.36-1.59-11.55-4.8c-3.15-3.26-4.74-7.2-4.74-11.82s1.59-8.22,4.74-11.36c3.13-3.13,6.93-4.7,11.37-4.7s8.23,1.61,11.37,4.8c3.2,3.2,4.82,7.1,4.82,11.64"/>
  </g>
  <rect class="cls-2" x="204.57" y="250.04" width="6.37" height="37.35"/>
  <g>
    <path class="cls-1" d="M72.27,259.8c-1.15-.45-2.35-.8-3.61-1.05-1.26-.25-2.56-.38-3.91-.38s-2.69.22-3.86.65c-1.18.43-2.19,1.07-3.04,1.91-.85.84-1.52,1.87-2,3.09-.48,1.22-.71,2.62-.71,4.22,0,3.02.78,5.37,2.35,7.04,1.57,1.67,3.79,2.5,6.68,2.5,1.32,0,2.52-.17,3.61-.5v-9.87h5.46v13.52c-1.43.56-2.98.99-4.64,1.3-1.67.31-3.35.46-5.06.46-2.24,0-4.25-.32-6.03-.97-1.78-.64-3.28-1.57-4.52-2.77-1.23-1.2-2.17-2.67-2.81-4.39-.64-1.72-.97-3.66-.97-5.82s.36-4.25,1.09-6.13c.73-1.88,1.78-3.49,3.15-4.83,1.37-1.34,3.04-2.39,5-3.15,1.96-.76,4.17-1.13,6.64-1.13,1.43,0,2.81.11,4.16.34,1.34.22,2.63.52,3.86.88l-.84,5.08Z"/>
    <path class="cls-1" d="M94.49,282.27l-7.9-11.72h-.21v11.72h-5.46v-28.35c1.12-.06,2.34-.1,3.68-.13,1.33-.03,2.82-.04,4.47-.04s2.98.15,4.24.44c1.26.29,2.34.76,3.23,1.39.9.63,1.59,1.45,2.08,2.46.49,1.01.73,2.24.73,3.7,0,1.06-.18,2.04-.52,2.92-.35.88-.84,1.67-1.47,2.35-.63.69-1.39,1.25-2.29,1.7-.9.45-1.88.76-2.94.92.39.53.78,1.06,1.18,1.6.39.53.77,1.04,1.13,1.51l6.8,9.53h-6.76ZM93.65,262.32c0-2.72-1.71-4.07-5.12-4.07-.39,0-.78,0-1.15.02-.38.01-.71.05-.99.1v8.19c.2.03.47.05.82.06.35.01.73.02,1.15.02,1.65,0,2.95-.38,3.88-1.16.94-.77,1.41-1.83,1.41-3.17Z"/>
    <path class="cls-1" d="M131.87,267.7c0,2.35-.37,4.45-1.09,6.3-.73,1.85-1.71,3.42-2.96,4.73s-2.71,2.3-4.39,2.98c-1.68.69-3.49,1.03-5.42,1.03-2.16,0-4.05-.33-5.67-.99-1.62-.66-2.97-1.61-4.03-2.86-1.06-1.25-1.86-2.75-2.39-4.52-.53-1.76-.8-3.74-.8-5.92,0-2.35.36-4.45,1.09-6.3.73-1.85,1.72-3.42,2.98-4.7,1.26-1.29,2.73-2.27,4.41-2.96,1.68-.69,3.47-1.03,5.38-1.03s3.61.29,5.19.86c1.58.57,2.95,1.45,4.1,2.62,1.15,1.18,2.04,2.65,2.67,4.43.63,1.78.95,3.88.95,6.32ZM126.03,268.12c0-3.16-.64-5.58-1.93-7.25-1.29-1.67-3.17-2.5-5.63-2.5-.98,0-1.93.2-2.83.59-.91.39-1.71.98-2.39,1.76-.69.78-1.24,1.77-1.66,2.96-.42,1.19-.63,2.58-.63,4.18,0,1.51.15,2.88.44,4.1.29,1.22.75,2.25,1.36,3.11.62.85,1.39,1.52,2.33,2,.94.48,2.04.71,3.3.71.92,0,1.84-.18,2.75-.55.91-.36,1.73-.94,2.46-1.72.73-.78,1.31-1.79,1.76-3,.45-1.22.67-2.68.67-4.39Z"/>
    <path class="cls-1" d="M160.85,271.31c0,3.89-1.03,6.77-3.09,8.63-2.06,1.86-4.95,2.79-8.67,2.79-2.24,0-4.07-.28-5.48-.83s-2.53-1.3-3.34-2.25c-.81-.94-1.37-2.04-1.68-3.28-.31-1.25-.46-2.54-.46-3.88v-18.52h5.46v18.19c0,.9.08,1.72.25,2.46.17.74.48,1.39.93,1.93.45.55,1.05.97,1.81,1.26s1.73.44,2.91.44c2.11,0,3.63-.5,4.57-1.49.94-.99,1.41-2.69,1.41-5.1v-17.68h5.38v17.35Z"/>
    <path class="cls-1" d="M187.06,262.53c0,1.37-.25,2.66-.76,3.86-.5,1.2-1.24,2.25-2.21,3.13s-2.14,1.58-3.51,2.08c-1.37.5-2.91.76-4.62.76h-.86c-.32,0-.65-.03-.99-.08v10h-5.46v-28.35c1.18-.06,2.39-.1,3.63-.13,1.25-.03,2.57-.04,3.97-.04,3.5,0,6.17.76,8.02,2.29,1.85,1.53,2.77,3.69,2.77,6.49ZM181.43,262.91c0-1.43-.43-2.56-1.29-3.4-.86-.84-2.22-1.26-4.08-1.26h-.99c-.32,0-.64.01-.95.04v9.45c.53.08,1.07.13,1.6.13,1.69-.03,3.06-.48,4.12-1.34,1.06-.87,1.58-2.07,1.58-3.61Z"/>
    <path class="cls-1" d="M239.7,258.54v7.31h9.16v4.49h-9.16v11.93h-5.46v-28.35h15.16v4.62h-9.7Z"/>
    <path class="cls-1" d="M255.71,282.27v-28.35h15.41v4.58h-9.95v6.93h9.45v4.49h-9.45v7.69h9.95v4.66h-15.41Z"/>
    <path class="cls-1" d="M278.35,282.27v-28.35h15.41v4.58h-9.95v6.93h9.45v4.49h-9.45v7.69h9.95v4.66h-15.41Z"/>
    <path class="cls-1" d="M324.5,267.62c0,2.44-.38,4.58-1.13,6.43-.76,1.85-1.83,3.4-3.21,4.64-1.39,1.25-3.04,2.18-4.96,2.81-1.92.63-4.03.95-6.32.95-1.48,0-2.87-.02-4.16-.06s-2.53-.09-3.74-.15v-28.27c1.12-.06,2.48-.11,4.09-.15,1.61-.04,3.3-.06,5.06-.06,2.18,0,4.17.25,5.94.76,1.78.5,3.29,1.32,4.54,2.44,1.25,1.12,2.21,2.56,2.88,4.3.67,1.75,1.01,3.87,1.01,6.36ZM318.66,268.04c0-1.51-.16-2.87-.49-4.07-.32-1.2-.84-2.23-1.54-3.07s-1.62-1.48-2.74-1.91c-1.12-.43-2.5-.65-4.13-.65-.65,0-1.25,0-1.81.02-.56.01-1.07.05-1.52.1v19.11c.39.06.85.11,1.37.15s1.06.06,1.62.06c1.35,0,2.58-.19,3.71-.57,1.12-.38,2.09-.97,2.91-1.76s1.45-1.81,1.92-3.04c.46-1.23.7-2.69.7-4.37Z"/>
    <path class="cls-1" d="M367.26,283.28c-.48-.34-.97-.69-1.49-1.05-.52-.36-1.03-.73-1.53-1.09s-.99-.72-1.47-1.07c-.48-.35-.9-.68-1.26-.99-1.34,1.06-2.93,1.95-4.77,2.65-1.83.7-3.88,1.05-6.15,1.05-1.65,0-3.07-.22-4.26-.67-1.19-.45-2.18-1.06-2.96-1.83-.78-.77-1.37-1.66-1.74-2.67s-.57-2.07-.57-3.19c0-1.85.49-3.46,1.48-4.83s2.29-2.69,3.89-3.95c-.64-.76-1.19-1.46-1.64-2.1-.45-.64-.82-1.27-1.11-1.87-.29-.6-.5-1.19-.63-1.76-.13-.57-.19-1.17-.19-1.79,0-.92.18-1.81.55-2.67.36-.85.9-1.6,1.6-2.23.7-.63,1.57-1.13,2.62-1.51s2.24-.57,3.58-.57c2.43,0,4.28.57,5.55,1.72,1.27,1.15,1.9,2.65,1.9,4.49,0,1.48-.4,2.87-1.2,4.16-.8,1.29-2.07,2.62-3.8,3.99,1.01,1.01,2.19,2.12,3.55,3.34,1.36,1.22,2.71,2.36,4.05,3.42v.04c.84-1.29,1.48-2.74,1.93-4.37.45-1.62.64-3.29.59-5h5.33c.06,2.24-.25,4.42-.9,6.53-.66,2.11-1.63,4.03-2.92,5.73.92.7,1.88,1.41,2.88,2.12.99.71,1.87,1.32,2.62,1.83l-3.53,4.12ZM357.56,276.1c-.73-.59-1.46-1.2-2.2-1.83-.74-.63-1.46-1.27-2.16-1.91-.7-.64-1.36-1.27-1.99-1.87-.63-.6-1.18-1.15-1.65-1.66-1.03.9-1.77,1.74-2.22,2.52-.45.78-.67,1.58-.67,2.39,0,.59.11,1.15.33,1.68.22.53.54,1,.96,1.41.42.41.93.74,1.53.99s1.28.38,2.03.38c1.25,0,2.38-.21,3.39-.63s1.88-.91,2.64-1.47ZM353.36,257.75c0-.7-.21-1.29-.63-1.79-.42-.49-1.08-.73-1.97-.73-.78,0-1.42.24-1.91.71-.49.48-.73,1.12-.73,1.93,0,.59.17,1.25.52,1.97.35.73.97,1.6,1.87,2.6.9-.73,1.6-1.47,2.1-2.23.5-.76.76-1.58.76-2.48Z"/>
    <path class="cls-1" d="M404.97,273.48c0,1.35-.26,2.58-.78,3.7s-1.26,2.1-2.22,2.92c-.97.83-2.14,1.47-3.53,1.94-1.39.46-2.95.69-4.68.69-1.01,0-2-.06-2.98-.17-.98-.11-1.92-.28-2.81-.5l.34-5.08c.81.28,1.74.52,2.79.71,1.05.2,2.09.29,3.13.29,1.4,0,2.57-.29,3.5-.88.94-.59,1.41-1.54,1.41-2.86,0-.9-.29-1.61-.88-2.14-.59-.53-1.32-.99-2.21-1.39-.88-.39-1.83-.78-2.86-1.16-1.02-.38-1.97-.87-2.86-1.47-.88-.6-1.62-1.38-2.21-2.33-.59-.95-.88-2.21-.88-3.78,0-1.26.25-2.42.74-3.46.49-1.05,1.21-1.95,2.14-2.69.93-.74,2.06-1.32,3.4-1.74,1.33-.42,2.85-.63,4.56-.63.81,0,1.66.05,2.54.15.88.1,1.74.21,2.58.35l-.29,4.75c-.81-.22-1.64-.41-2.5-.55-.85-.14-1.71-.21-2.58-.21-1.6,0-2.79.32-3.57.97-.78.64-1.18,1.47-1.18,2.48,0,.84.29,1.52.88,2.04.59.52,1.32.98,2.2,1.39.88.41,1.83.81,2.87,1.2,1.03.39,1.99.9,2.87,1.51.88.62,1.61,1.39,2.2,2.31.59.93.88,2.13.88,3.62Z"/>
    <path class="cls-1" d="M436.77,267.7c0,2.35-.36,4.45-1.09,6.3-.73,1.85-1.71,3.42-2.96,4.73s-2.71,2.3-4.39,2.98c-1.68.69-3.49,1.03-5.42,1.03-2.16,0-4.05-.33-5.67-.99-1.62-.66-2.97-1.61-4.03-2.86-1.06-1.25-1.86-2.75-2.39-4.52-.53-1.76-.8-3.74-.8-5.92,0-2.35.36-4.45,1.09-6.3.73-1.85,1.72-3.42,2.98-4.7,1.26-1.29,2.73-2.27,4.41-2.96,1.68-.69,3.47-1.03,5.38-1.03s3.6.29,5.19.86c1.58.57,2.95,1.45,4.1,2.62,1.15,1.18,2.04,2.65,2.67,4.43s.94,3.88.94,6.32ZM430.93,268.12c0-3.16-.64-5.58-1.93-7.25-1.29-1.67-3.17-2.5-5.63-2.5-.98,0-1.93.2-2.84.59-.91.39-1.71.98-2.39,1.76-.69.78-1.24,1.77-1.66,2.96-.42,1.19-.63,2.58-.63,4.18,0,1.51.15,2.88.44,4.1.29,1.22.75,2.25,1.37,3.11.62.85,1.39,1.52,2.33,2,.94.48,2.04.71,3.3.71.92,0,1.84-.18,2.75-.55.91-.36,1.73-.94,2.46-1.72.73-.78,1.32-1.79,1.76-3,.45-1.22.67-2.68.67-4.39Z"/>
    <path class="cls-1" d="M443.03,282.27v-28.35h5.46v23.56h9.2v4.79h-14.66Z"/>
    <path class="cls-1" d="M462.97,282.27v-28.35h5.46v28.35h-5.46Z"/>
    <path class="cls-1" d="M499.77,267.62c0,2.44-.38,4.58-1.13,6.43-.76,1.85-1.83,3.4-3.21,4.64-1.39,1.25-3.04,2.18-4.96,2.81-1.92.63-4.03.95-6.32.95-1.48,0-2.87-.02-4.16-.06s-2.53-.09-3.74-.15v-28.27c1.12-.06,2.48-.11,4.09-.15,1.61-.04,3.3-.06,5.06-.06,2.18,0,4.17.25,5.94.76,1.78.5,3.29,1.32,4.54,2.44,1.25,1.12,2.21,2.56,2.88,4.3.67,1.75,1.01,3.87,1.01,6.36ZM493.93,268.04c0-1.51-.16-2.87-.49-4.07-.32-1.2-.84-2.23-1.54-3.07s-1.62-1.48-2.74-1.91c-1.12-.43-2.5-.65-4.13-.65-.65,0-1.25,0-1.81.02-.56.01-1.07.05-1.52.1v19.11c.39.06.85.11,1.37.15s1.06.06,1.62.06c1.35,0,2.58-.19,3.71-.57,1.12-.38,2.09-.97,2.91-1.76s1.45-1.81,1.92-3.04c.46-1.23.7-2.69.7-4.37Z"/>
    <path class="cls-1" d="M522.66,273.48c0,1.35-.26,2.58-.78,3.7s-1.26,2.1-2.22,2.92c-.97.83-2.14,1.47-3.53,1.94-1.39.46-2.95.69-4.68.69-1.01,0-2-.06-2.98-.17-.98-.11-1.92-.28-2.81-.5l.34-5.08c.81.28,1.74.52,2.79.71,1.05.2,2.09.29,3.13.29,1.4,0,2.57-.29,3.5-.88.94-.59,1.41-1.54,1.41-2.86,0-.9-.29-1.61-.88-2.14-.59-.53-1.32-.99-2.21-1.39-.88-.39-1.83-.78-2.86-1.16-1.02-.38-1.97-.87-2.86-1.47-.88-.6-1.62-1.38-2.21-2.33-.59-.95-.88-2.21-.88-3.78,0-1.26.25-2.42.74-3.46.49-1.05,1.21-1.95,2.14-2.69.93-.74,2.06-1.32,3.4-1.74,1.33-.42,2.85-.63,4.56-.63.81,0,1.66.05,2.54.15.88.1,1.74.21,2.58.35l-.29,4.75c-.81-.22-1.64-.41-2.5-.55-.85-.14-1.71-.21-2.58-.21-1.6,0-2.79.32-3.57.97-.78.64-1.18,1.47-1.18,2.48,0,.84.29,1.52.88,2.04.59.52,1.32.98,2.2,1.39.88.41,1.83.81,2.87,1.2,1.03.39,1.99.9,2.87,1.51.88.62,1.61,1.39,2.2,2.31.59.93.88,2.13.88,3.62Z"/>
  </g>
</svg>